<?xml version="1.0" standalone="no"?>
<!DOCTYPE svg PUBLIC "-//W3C//DTD SVG 20010904//EN"
 "http://www.w3.org/TR/2001/REC-SVG-20010904/DTD/svg10.dtd">
<svg version="1.0" xmlns="http://www.w3.org/2000/svg"
 width="924.000000pt" height="396.000000pt" viewBox="0 0 924.000000 396.000000"
 preserveAspectRatio="xMidYMid meet">

<g transform="translate(0.000000,396.000000) scale(0.100000,-0.100000)"
fill="#000000" stroke="none">
<path d="M1005 2991 l-100 -6 -5 -140 c-3 -77 -9 -146 -14 -153 -5 -8 -19 -12
-34 -9 -37 7 -71 -8 -77 -35 -5 -23 -48 -353 -85 -663 -11 -93 -32 -264 -47
-380 -40 -314 -40 -297 -5 -369 39 -81 78 -125 140 -159 72 -39 126 -45 317
-38 130 5 175 4 190 -6 28 -19 59 -16 89 8 20 16 30 18 40 10 10 -9 129 -11
428 -9 l413 3 56 26 c100 47 169 136 199 255 11 42 10 71 -4 180 -9 71 -21
190 -26 264 -6 74 -17 194 -25 265 -8 72 -26 236 -40 365 -14 129 -30 245 -35
257 -5 13 -20 23 -37 25 -24 3 -28 7 -28 35 0 31 -8 37 -199 158 -109 69 -204
125 -211 125 -8 0 -46 -38 -86 -85 l-73 -85 -88 0 -88 0 0 73 c0 43 -5 78 -12
85 -13 13 -346 14 -553 3z m375 -150 c0 -6 -15 -11 -32 -13 l-33 -3 -3 -68 -3
-68 -122 3 -122 3 -3 64 c-2 35 -1 70 2 77 4 11 39 14 161 14 90 0 155 -4 155
-9z m625 -93 c32 -18 58 -37 59 -43 1 -6 -36 -11 -86 -13 -83 -3 -88 -2 -88
18 0 26 28 70 45 70 7 0 39 -15 70 -32z m-260 -63 c0 -19 -8 -20 -129 -23
-134 -3 -169 6 -145 35 9 11 40 13 143 11 123 -3 131 -4 131 -23z m485 -172
c0 -31 70 -707 75 -723 2 -8 14 -104 25 -213 18 -174 19 -200 6 -225 -22 -42
-88 -106 -143 -139 l-48 -28 -363 -5 c-302 -4 -364 -7 -372 -19 -7 -13 -14
-12 -44 4 -31 17 -40 18 -68 7 -21 -8 -36 -8 -42 -2 -6 6 -76 10 -164 10 -176
0 -183 3 -245 88 -59 81 -60 94 -33 313 46 366 65 514 86 699 11 102 23 200
27 218 l5 32 649 0 c611 0 649 -1 649 -17z"/>
<path d="M1183 2391 c-24 -11 -55 -38 -72 -62 -26 -36 -31 -51 -31 -101 0 -64
14 -100 54 -137 15 -14 26 -36 26 -50 0 -41 25 -121 54 -180 155 -305 665
-270 776 54 11 32 20 78 20 101 0 34 7 51 30 77 54 62 64 130 31 203 -64 140
-269 140 -332 -1 -35 -75 -14 -164 51 -218 41 -35 36 -61 -26 -127 -75 -80
-160 -109 -231 -78 -58 25 -116 72 -144 116 -35 55 -36 73 -8 98 34 31 59 90
59 139 0 132 -138 222 -257 166z"/>
<path d="M6656 2517 c-16 -12 -17 -42 -14 -422 l3 -410 27 -57 c71 -152 218
-238 407 -238 189 0 339 86 407 233 l29 62 3 408 c2 300 0 413 -9 423 -17 20
-241 20 -258 0 -9 -10 -12 -116 -10 -394 2 -421 2 -418 -65 -458 -42 -26 -151
-26 -189 -1 -63 41 -63 40 -71 459 -4 251 -10 386 -18 395 -15 18 -217 18
-242 0z"/>
<path d="M7557 2524 c-18 -18 4 -69 151 -349 l157 -300 3 -225 c2 -139 7 -229
14 -237 7 -9 45 -13 129 -13 105 0 119 2 128 19 6 11 8 94 4 222 l-6 204 163
326 c105 208 161 332 157 342 -6 15 -25 17 -141 17 -97 0 -137 -4 -143 -12 -4
-7 -42 -87 -83 -177 -41 -90 -79 -164 -85 -165 -5 0 -46 78 -92 174 l-82 175
-134 3 c-73 1 -136 -1 -140 -4z"/>
<path d="M4971 2509 c-65 -13 -115 -50 -142 -105 l-23 -48 3 -475 c1 -262 5
-479 7 -483 9 -13 248 -10 262 4 9 9 12 70 12 215 l0 203 174 0 c137 0 176 3
185 14 7 9 13 57 14 123 l2 108 -190 5 -190 5 0 77 c0 55 4 82 15 92 12 12 60
16 235 22 187 5 222 9 233 23 10 12 12 40 7 116 -4 55 -9 103 -12 108 -6 10
-538 7 -592 -4z"/>
<path d="M5697 2514 c-4 -4 -7 -203 -7 -443 0 -503 3 -524 75 -597 68 -68 116
-79 335 -79 215 0 254 10 331 82 70 66 93 125 93 248 1 112 -16 163 -72 223
l-30 32 33 50 c47 70 58 111 53 199 -8 127 -65 217 -167 265 -43 20 -65 21
-341 24 -163 2 -299 0 -303 -4z m511 -260 c18 -12 22 -25 22 -64 0 -72 -18
-81 -156 -78 l-109 3 -3 64 c-2 35 -1 70 2 77 8 21 214 19 244 -2z m17 -418
c14 -10 20 -30 23 -79 4 -56 1 -68 -17 -86 -19 -19 -33 -21 -122 -21 -139 0
-139 0 -139 110 l0 90 118 0 c85 0 124 -4 137 -14z"/>
<path d="M2831 2501 c-12 -8 -14 -98 -12 -557 1 -301 5 -552 7 -556 8 -13 248
-10 262 4 9 9 12 71 12 215 l0 204 158 -3 157 -3 5 -210 5 -210 130 0 130 0 3
549 c1 397 -1 553 -9 562 -16 20 -242 20 -258 1 -7 -9 -12 -89 -13 -223 l-3
-209 -149 -3 c-113 -2 -151 1 -158 10 -4 7 -8 106 -8 219 0 179 -2 208 -16
213 -24 9 -227 7 -243 -3z"/>
<path d="M4165 2491 c-17 -10 -39 -30 -48 -44 -26 -40 -359 -1015 -355 -1040
3 -21 8 -22 127 -25 83 -2 128 1 137 9 8 6 24 44 35 83 12 39 28 77 37 84 18
14 268 17 289 4 7 -5 24 -41 38 -81 13 -41 30 -80 36 -87 8 -10 40 -14 121
-14 114 0 148 9 148 38 0 20 -343 990 -366 1033 -8 16 -28 35 -44 44 -40 21
-118 19 -155 -4z m124 -557 c17 -56 31 -106 31 -113 0 -7 -26 -11 -75 -11 -49
0 -75 4 -75 11 0 13 59 209 67 222 10 16 21 -8 52 -109z"/>
</g>
</svg>
